<mxfile host="65bd71144e">
    <diagram id="GnOyVSTT019X5IzsO7jn" name="Page-1">
        <mxGraphModel dx="1717" dy="2250" grid="1" gridSize="10" guides="1" tooltips="1" connect="1" arrows="1" fold="1" page="1" pageScale="1" pageWidth="850" pageHeight="1100" math="0" shadow="0">
            <root>
                <mxCell id="0"/>
                <mxCell id="1" parent="0"/>
                <mxCell id="3" value="Broker 1" style="rounded=0;whiteSpace=wrap;html=1;" vertex="1" parent="1">
                    <mxGeometry x="200" y="50" width="120" height="60" as="geometry"/>
                </mxCell>
                <mxCell id="4" value="Broker 2" style="rounded=0;whiteSpace=wrap;html=1;" vertex="1" parent="1">
                    <mxGeometry x="425" y="50" width="120" height="60" as="geometry"/>
                </mxCell>
                <mxCell id="5" value="Broker 3" style="rounded=0;whiteSpace=wrap;html=1;" vertex="1" parent="1">
                    <mxGeometry x="320" y="200" width="120" height="60" as="geometry"/>
                </mxCell>
                <mxCell id="8" value="Cluster" style="rounded=1;whiteSpace=wrap;html=1;dashed=1;fillColor=none;align=center;verticalAlign=top;horizontal=1;" vertex="1" parent="1">
                    <mxGeometry x="180" width="400" height="280" as="geometry"/>
                </mxCell>
                <mxCell id="9" value="Cluster EU" style="rounded=1;whiteSpace=wrap;html=1;dashed=1;fillColor=none;align=center;verticalAlign=top;" vertex="1" parent="1">
                    <mxGeometry x="10" y="-140" width="120" height="60" as="geometry"/>
                </mxCell>
            </root>
        </mxGraphModel>
    </diagram>
</mxfile>